<?xml version="1.0" encoding="UTF-8"?>
<svg id="Layer_1" data-name="Layer 1" xmlns="http://www.w3.org/2000/svg" viewBox="0 0 1080 1080">
  <path d="M187.18,482.82c3.6-1.44,21.34-23.26,19.18-36.68-.96-6.23-6.95-9.35-17.74-9.35-28.77,0-61.62,22.3-90.15,61.14-25.89,35-42.68,76-42.68,104.54,0,10.79,2.4,19.18,6.95,24.93,5.03,6.23,12.71,9.35,22.78,9.35,49.87,0,100.46-67.37,100.94-68.09.96-1.2,2.64-1.44,3.84-.48,1.2.96,1.44,2.64.48,3.84-.24.24-13.19,17.74-32.37,35-26.13,23.5-50.59,35.25-72.65,35.25-11.75,0-20.86-3.84-26.85-11.27-5.51-6.71-8.15-16.3-8.15-28.29,0-29.73,17.02-71.93,43.4-107.65,29.49-40.04,63.78-63.06,94.23-63.06,7.91,0,13.91,1.68,17.74,4.79,3.6,2.88,5.51,6.95,5.51,12.23,0,15.1-17.74,39.56-24.22,39.56-1.44,0-2.64-1.2-2.64-2.64s.96-2.64,2.4-2.88v-.24Z" fill="#fff"/>
  <path d="M250,564.34c1.2.72,1.44,2.4.72,3.6-.24.24-4.56,6.71-9.83,13.19-10.07,12.47-14.87,13.91-17.5,13.91-.96,0-1.92-.48-2.4-1.2-1.44-1.92-.72-4.32,1.44-11.27,1.2-3.6,3.6-11.03,3.12-13.19-9.11.48-30.45,20.62-30.45,25.42,0,1.44-1.2,2.64-2.64,2.64s-2.64-1.2-2.64-2.64c0-9.59,35-71.93,41.96-84.4.72-1.2,2.4-1.68,3.6-.96,1.2.72,1.68,2.4.96,3.6-10.79,19.18-25.89,46.99-34.53,64.98.72-.72,1.44-1.2,1.92-1.44,4.08-3.6,14.63-12.23,22.06-12.23,1.68,0,3.12.72,4.08,1.92,2.4,3.12.72,9.11-2.16,17.98-.48,1.44-.96,3.36-1.44,4.8,5.03-3.36,13.91-13.91,20.38-23.74.72-1.2,2.4-1.44,3.6-.72l-.24-.24Z" fill="#fff"/>
  <path d="M314.02,567.21c.96,1.2.72,2.88-.48,3.84-2.64,1.92-26.13,19.18-36.92,19.18-2.88,0-5.04-.96-6.23-2.64-1.68-2.16-1.2-4.8-.48-7.19-7.19,5.27-20.62,14.39-26.85,14.39-2.64,0-4.8-.72-6.23-2.16-.96-.96-2.16-2.64-2.16-5.51,0-11.51,18.22-31.89,36.2-31.89,3.84,0,15.82,0,15.82,11.99,0,1.44-1.2,2.64-2.64,2.64s-2.64-1.2-2.64-2.64c0-3.36-.72-6.71-10.55-6.71-15.1,0-30.93,18.46-30.93,26.61,0,.96.24,1.68.72,2.16s1.44.72,2.64.72c4.56,0,19.18-9.83,28.05-16.78.48-.24.96-.48,1.44-.48,1.68,0,2.64.96,3.12,1.44,1.2,1.68.48,3.84-.24,6.23-.24.96-1.2,3.84-.72,4.32,0,0,.48.24,1.92.24,7.67,0,26.85-13.19,33.57-18.22,1.2-.96,2.88-.72,3.84.48h-.24Z" fill="#fff"/>
  <path d="M377.8,565.77c1.2.96,1.2,2.64.24,3.6-5.75,6.47-19.66,21.34-26.13,20.62-1.2,0-2.16-.48-2.88-1.44-1.92-2.88,0-7.67,3.36-16.06.96-2.4,2.16-5.51,2.88-7.67-6.47,2.16-17.26,12.47-17.74,15.1,0,1.44-1.2,2.4-2.64,2.4-1.2,0-2.16-.48-2.64-1.44-1.44-2.4.24-6.23,5.51-17.26,2.4-4.79,5.99-12.23,6.71-15.58-3.84,1.2-11.03,6.71-21.34,19.42-7.91,9.59-13.67,18.46-15.34,22.06-.24,1.44-.48,2.4-.48,2.88,0,1.44-1.2,2.64-2.64,2.64s-2.64-1.2-2.64-2.64v-1.44c0-.48.24-1.44.72-2.64.96-4.08,2.88-10.55,4.79-16.3,5.99-17.26,9.83-19.66,12.71-19.66,1.44,0,2.64,1.2,2.64,2.64s-.96,2.64-2.4,2.64c-.96.48-3.6,4.08-7.19,14.39,9.83-13.43,23.98-28.77,32.61-28.77,1.44,0,2.64.72,3.36,1.92,1.92,3.12-.48,8.87-6.71,21.34l-.72,1.44c2.88-2.4,10.07-8.15,15.34-8.15,1.2,0,2.16.48,2.88,1.44,1.44,2.4,0,6.23-3.12,13.91-1.2,3.12-3.12,7.91-3.6,10.31,3.36-1.2,12.23-9.35,20.38-18.7.96-1.2,2.64-1.2,3.6-.24l.48-.72Z" fill="#fff"/>
  <path d="M409.44,564.1c.96.96.96,2.64,0,3.6-2.4,2.4-23.98,24.22-35.72,24.22-2.16,0-3.84-.96-4.79-2.64-1.44-2.4-1.92-7.19,5.51-22.06,3.84-7.91,8.15-14.87,8.39-15.11.72-1.2,2.4-1.68,3.6-.96,1.2.72,1.68,2.4.96,3.6-8.87,14.39-15.34,29.25-13.91,31.89h.24c7.19,0,23.5-13.91,32.13-22.78.96-.96,2.64-.96,3.6,0v.24ZM385.71,545.63c0-1.92,1.68-3.6,3.6-3.6s3.6,1.68,3.6,3.6-1.68,3.6-3.6,3.6-3.6-1.68-3.6-3.6Z" fill="#fff"/>
  <path d="M452.36,566.73c.72,1.2.48,2.88-.72,3.6-.24.24-7.43,5.28-14.63,5.28-1.92,0-3.6-.72-4.8-1.92-2.16-2.4-1.92-6.23-1.68-9.35v-2.4c-6.95,3.12-31.89,29.73-32.61,35.25,0,.96-.48,1.68-1.2,2.16-.24,1.2-1.2,2.16-2.4,2.16-.96,0-1.92-.48-2.4-1.44-1.44-2.16-.48-5.03,12.23-30.45,3.12-6.23,6.47-13.19,7.19-15.11,0-1.44,1.2-2.64,2.64-2.64.96,0,1.92.48,2.4,1.2q.96,1.68-7.67,18.7c-.96,1.68-1.92,3.6-2.88,5.51,1.2-1.2,2.16-2.4,2.88-3.36,6.23-6.47,17.26-17.5,22.3-17.5,1.2,0,2.16.48,2.88,1.2,1.44,1.68,1.2,4.32.96,6.95,0,1.68-.24,4.56.48,5.27.24.24.72.24.96.24,4.56,0,9.83-3.12,11.51-4.32,1.2-.72,2.88-.48,3.6.72l.96.24Z" fill="#fff"/>
  <path d="M506.79,562.9c1.2.96,1.44,2.64.48,3.84-1.92,2.4-18.22,22.54-29.49,22.54-1.68,0-3.12-.72-3.84-2.16-.72-.96-1.44-3.6.24-9.83-7.19,6.95-16.78,14.63-24.46,14.63-2.4,0-4.32-.96-5.27-2.88-4.32-7.91,9.59-31.65,13.91-38.84.72-1.2,2.4-1.68,3.6-.96,1.2.72,1.68,2.4.96,3.6-8.15,13.43-15.58,29.97-13.67,33.33,0,0,0,.24.72.24,9.11,0,24.94-16.78,30.21-23.26.72-.96,2.16-1.2,3.36-.48,1.2.72,1.68,2.16,1.2,3.36-3.84,7.43-6.47,15.58-6.23,17.98,6.71-.48,18.7-12.71,24.7-20.38.96-1.2,2.64-1.44,3.84-.48l-.24-.24Z" fill="#fff"/>
  <path d="M763.58,447.57c1.44.24,2.4,1.44,2.16,2.88-.24,1.44-1.44,2.4-2.88,2.4-36.92-3.36-69.53-3.36-96.14-1.68-8.87,15.82-29.97,54.43-48.19,92.79,10.55-1.68,23.74-3.12,39.08-3.12,1.44,0,2.64,1.2,2.64,2.64s-1.2,2.64-2.64,2.64c-16.54,0-30.69,1.68-41.96,3.6-16.54,35.48-29.97,70.01-28.29,85.59.24,1.44-.72,2.64-2.16,2.88-1.2,0-2.4-.96-2.64-2.4-1.44-13.43,7.19-39.32,19.42-67.85v-.72c.48-1.68,0-2.64-.48-3.36-2.88-4.08-13.91-5.28-16.78-5.28-1.68,0-2.64-1.44-2.64-2.64,0-1.92,1.2-2.88,6.95-5.03,2.88-.96,7.91-2.64,15.11-4.32,2.4-.48,5.04-.96,8.15-1.44,8.15-17.26,16.78-34.53,24.93-49.87v-.72c2.64-5.75,2.64-10.79,0-15.1-5.51-8.63-21.82-13.67-43.4-13.67-2.88,0-5.03-.24-5.99-1.92-.48-.96-.48-2.16.24-3.12,2.88-4.56,27.81-9.59,51.07-12.23,6.95-.72,15.1-1.44,24.46-2.16,1.44-2.64,2.4-4.32,2.64-4.79.72-1.2,2.4-1.68,3.6-.96,1.2.72,1.68,2.4.96,3.6,0,0-.48.72-1.2,1.92,24.7-1.44,56.34-1.44,93.51,1.92l.48-.48ZM605.57,560.02c1.44-3.12,2.88-6.23,4.32-9.35-5.99,1.2-11.03,2.64-14.87,3.84,4.08.96,8.39,2.64,10.79,5.51h-.24ZM644.18,482.34c6.71-12.71,12.71-23.5,16.78-30.93-29.25,2.16-50.59,5.99-61.14,9.11,20.86.96,35.96,6.71,41.96,16.06,1.2,1.68,1.92,3.6,2.4,5.51v.24Z" fill="#fff"/>
  <path d="M715.15,565.53c.96.96.96,2.64,0,3.6-2.64,2.88-25.18,27.57-38.12,27.57-4.08,0-7.43-1.2-9.59-3.36s-3.36-5.04-3.36-8.63c0-12.95,15.34-34.29,32.61-34.29,2.64,0,4.56.48,5.99,1.44,1.68.96,2.64,2.64,2.64,4.56,0,7.67-16.3,18.7-31.41,18.7-.72,0-1.44-.24-1.92-.72-1.92,3.6-3.12,7.19-3.12,10.31,0,2.16.48,3.84,1.68,5.04,1.2,1.2,3.12,1.92,5.75,1.92,2.4,0,8.39-1.68,20.86-12.71,7.43-6.47,13.43-12.95,13.43-12.95.96-.96,2.64-.96,3.6,0l.96-.48ZM696.93,555.23c-8.39,0-16.54,6.71-21.82,14.39,10.55-.24,20.86-6.47,24.22-11.03,1.2-1.44,1.2-2.16,1.2-2.4,0,0-.72-.72-3.6-.72v-.24Z" fill="#fff"/>
  <path d="M758.06,566.73c.72,1.2.48,2.88-.72,3.6-.24.24-7.43,5.28-14.63,5.28-1.92,0-3.6-.72-4.8-1.92-2.16-2.4-1.92-6.23-1.68-9.35v-2.4c-6.95,3.12-31.89,29.73-32.61,35.25,0,.96-.48,1.68-1.2,2.16-.24,1.2-1.2,2.16-2.4,2.16-.96,0-1.92-.48-2.4-1.44-1.44-2.16-.48-5.03,12.23-30.45,3.12-6.23,6.47-13.19,7.19-15.11,0-1.44,1.2-2.64,2.64-2.64.96,0,1.92.48,2.4,1.2q.96,1.68-7.67,18.7c-.96,1.68-1.92,3.6-2.88,5.51,1.2-1.2,2.16-2.4,2.88-3.36,6.23-6.47,17.26-17.5,22.3-17.5,1.2,0,2.16.48,2.88,1.2,1.44,1.68,1.2,4.32.96,6.95,0,1.68-.24,4.56.48,5.27.24.24.72.24.96.24,4.56,0,9.83-3.12,11.51-4.32,1.2-.72,2.88-.48,3.6.72l.96.24Z" fill="#fff"/>
  <path d="M808.18,565.3c1.2.96,1.44,2.64.48,3.84-7.43,9.35-20.62,25.17-26.61,25.17-1.68,0-3.12-.72-4.08-1.92-2.4-3.36-.24-9.35,3.6-18.94,1.44-3.84,3.6-9.35,3.84-11.75-10.31,1.44-34.53,28.29-35.01,33.33,0,1.44-1.2,2.64-2.64,2.64-1.2,0-2.16-.48-2.64-1.44-.24-.48-.48-1.2-.48-1.92,0-4.56,5.99-17.02,8.63-22.06,9.11-17.74,11.27-17.74,12.71-17.74s2.64,1.2,2.64,2.64c0,.96-.72,1.92-1.68,2.4-1.92,1.92-6.95,11.03-11.03,19.66,2.64-3.12,5.04-5.51,5.27-5.75,6.23-6.23,17.74-16.54,25.65-16.54,1.44,0,2.64.72,3.36,1.92,1.92,2.88,0,8.15-3.6,17.02-1.68,4.08-4.56,11.51-4.32,13.91,3.36-1.2,13.91-12.71,22.06-23.26.96-1.2,2.64-1.44,3.84-.48v-.72Z" fill="#fff"/>
  <path d="M871.23,567.21c.96,1.2.72,2.88-.48,3.84-2.64,1.92-26.13,19.18-36.92,19.18-2.88,0-5.04-.96-6.23-2.64-1.68-2.16-1.2-4.8-.48-7.19-7.19,5.27-20.62,14.39-26.85,14.39-2.64,0-4.79-.72-6.23-2.16-.96-.96-2.16-2.64-2.16-5.51,0-11.51,18.22-31.89,36.2-31.89,3.84,0,15.82,0,15.82,11.99,0,1.44-1.2,2.64-2.64,2.64s-2.64-1.2-2.64-2.64c0-3.36-.72-6.71-10.55-6.71-15.11,0-30.93,18.46-30.93,26.61,0,.96.24,1.68.72,2.16.48.48,1.44.72,2.64.72,4.55,0,19.18-9.83,28.05-16.78.48-.24.96-.48,1.44-.48,1.68,0,2.64.96,3.12,1.44,1.2,1.68.48,3.84-.24,6.23-.24.96-1.2,3.84-.72,4.32,0,0,.48.24,1.92.24,7.67,0,26.85-13.19,33.57-18.22,1.2-.96,2.88-.72,3.84.48h-.24Z" fill="#fff"/>
  <path d="M919.67,565.3c1.2.96,1.44,2.64.48,3.84-7.43,9.35-20.62,25.17-26.61,25.17-1.68,0-3.12-.72-4.08-1.92-2.4-3.36-.24-9.35,3.6-18.94,1.44-3.84,3.6-9.35,3.84-11.75-10.31,1.44-34.53,28.29-35,33.33,0,1.44-1.2,2.64-2.64,2.64-1.2,0-2.16-.48-2.64-1.44-.24-.48-.48-1.2-.48-1.92,0-4.56,5.99-17.02,8.63-22.06,9.11-17.74,11.27-17.74,12.71-17.74s2.64,1.2,2.64,2.64c0,.96-.72,1.92-1.68,2.4-1.92,1.92-6.95,11.03-11.03,19.66,2.64-3.12,5.04-5.51,5.28-5.75,6.23-6.23,17.74-16.54,25.65-16.54,1.44,0,2.64.72,3.36,1.92,1.92,2.88,0,8.15-3.6,17.02-1.68,4.08-4.55,11.51-4.32,13.91,3.36-1.2,13.91-12.71,22.06-23.26.96-1.2,2.64-1.44,3.84-.48v-.72Z" fill="#fff"/>
  <path d="M1028.52,472.51c.24.48.72,1.2.72,2.16,0,6.71-27.81,43.64-46.75,66.65-4.08,5.04-7.91,9.59-11.51,13.91-12.95,25.42-27.33,60.42-27.33,90.15,0,1.44-1.2,2.64-2.64,2.64s-2.64-1.2-2.64-2.64c0-21.34,6.95-45.08,15.82-66.41h-.72c-1.2,0-2.16-.96-2.4-2.16-18.46,18.7-27.81,23.5-32.61,23.5-3.6,0-6.47-.96-8.39-3.12-1.92-1.92-2.88-4.56-2.88-7.91,0-14.15,18.94-39.32,37.4-39.32,5.51,0,9.35,1.44,11.75,4.32,1.44,1.92,2.16,4.08,2.4,6.47,2.64-2.88,5.27-5.99,8.15-9.11,3.6-7.19,7.19-13.67,10.31-18.94,9.35-16.06,19.66-31.41,29.01-43.16,14.38-18.22,18.7-18.22,20.14-18.22.96,0,1.92.48,2.4,1.2h-.24ZM952.52,566.97c.72-3.6.96-7.43-.72-9.59-1.2-1.68-3.84-2.4-7.67-2.4-15.1,0-32.13,22.3-32.13,34.29,0,1.92.48,3.36,1.44,4.32.96.96,2.64,1.44,4.79,1.44,4.56,0,15.59-7.67,34.53-27.81l-.24-.24ZM958.27,568.65c-.24.24-.48.48-.72.72-.24.72-.48,1.44-.72,2.16.48-.96.96-1.92,1.44-2.88ZM984.17,530.53c17.98-22.3,31.41-41.48,36.92-50.83-7.43,7.19-21.58,24.7-37.16,50.83h.24Z" fill="#fff"/>
  <path d="M1018.69,566.49c.96.96.96,2.64,0,3.6-.48.48-12.47,12.95-24.94,12.95-6.95,8.39-15.82,15.1-23.98,15.1-4.79,0-7.67-3.12-7.67-8.15,0-6.23,4.08-13.91,5.75-17.02,2.64-4.79,6.47-10.55,10.07-10.55,1.44,0,2.4.48,2.88.96.48-3.12,1.68-5.99,3.36-8.39,2.88-4.08,7.19-6.23,11.99-6.23,2.88,0,5.04.96,6.71,2.64,1.44,1.68,2.16,3.84,2.16,6.47,0,5.27-2.88,12.47-7.19,19.18,8.87-2.16,17.02-10.79,17.02-10.79.96-.96,2.64-.96,3.6,0l.24.24ZM987.52,581.84c-4.08-1.92-6.71-5.99-7.43-11.27-.72.72-1.92.96-2.88.48-.48-.24-.96-.72-1.2-1.2-3.84,4.56-10.07,16.54-8.87,21.82.24.96.72,1.44,2.4,1.44,5.75,0,12.47-4.79,17.98-11.27ZM999.75,558.1c0-.96-.24-2.16-.96-2.88-.48-.72-1.44-.96-2.88-.96-6.71,0-10.79,6.95-10.79,13.67,0,4.08,1.68,8.39,5.99,9.59,5.04-6.71,8.63-14.39,8.63-19.42Z" fill="#fff"/>
</svg>