<svg width="32" height="32" viewBox="0 0 32 32" fill="none" xmlns="http://www.w3.org/2000/svg">
<mask id="mask0_7_17" style="mask-type:alpha" maskUnits="userSpaceOnUse" x="0" y="0" width="32" height="32">
<rect width="32" height="32" fill="#D9D9D9"/>
</mask>
<g mask="url(#mask0_7_17)">
<path d="M8.00004 22.6667C7.26671 22.6667 6.63893 22.4056 6.11671 21.8833C5.59449 21.3611 5.33337 20.7333 5.33337 20V9.33333H8.00004V20H12V9.33333H14.6667V20C14.6667 20.7333 14.4056 21.3611 13.8834 21.8833C13.3612 22.4056 12.7334 22.6667 12 22.6667H8.00004ZM20 22.6667C19.2667 22.6667 18.6389 22.4056 18.1167 21.8833C17.5945 21.3611 17.3334 20.7333 17.3334 20V18.6667H20V20H24V17.3333H20C19.2667 17.3333 18.6389 17.0722 18.1167 16.55C17.5945 16.0278 17.3334 15.4 17.3334 14.6667V12C17.3334 11.2667 17.5945 10.6389 18.1167 10.1167C18.6389 9.59444 19.2667 9.33333 20 9.33333H24C24.7334 9.33333 25.3612 9.59444 25.8834 10.1167C26.4056 10.6389 26.6667 11.2667 26.6667 12V13.3333H24V12H20V14.6667H24C24.7334 14.6667 25.3612 14.9278 25.8834 15.45C26.4056 15.9722 26.6667 16.6 26.6667 17.3333V20C26.6667 20.7333 26.4056 21.3611 25.8834 21.8833C25.3612 22.4056 24.7334 22.6667 24 22.6667H20Z" fill="white"/>
</g>
</svg>
