<svg width="48" height="66" viewBox="0 0 48 66" fill="none" xmlns="http://www.w3.org/2000/svg">
<path d="M0.500001 64C0.500001 64.8284 1.17157 65.5 2 65.5C2.82843 65.5 3.5 64.8284 3.5 64L0.500001 64ZM39.5 16C43.9183 16 47.5 12.4183 47.5 8C47.5 3.58172 43.9183 -1.83231e-06 39.5 -1.63918e-06C35.0817 -1.44605e-06 31.5 3.58172 31.5 8C31.5 12.4183 35.0817 16 39.5 16ZM2 8L2 6.5C1.17157 6.5 0.499998 7.17158 0.499998 8L2 8ZM2 64L3.5 64L3.5 8L2 8L0.499998 8L0.500001 64L2 64ZM2 8L2 9.5L39.5 9.5L39.5 8L39.5 6.5L2 6.5L2 8Z" fill="white"/>
</svg>
