<svg width="112" height="16" viewBox="0 0 112 16" fill="none" xmlns="http://www.w3.org/2000/svg">
<path d="M7.04004 15.1934C5.90918 15.1934 4.94824 15.1348 4.15723 15.0176C3.36621 14.9062 2.72754 14.6748 2.24121 14.3232C1.75488 13.9658 1.40039 13.4326 1.17773 12.7236C0.955078 12.0146 0.84375 11.0684 0.84375 9.88477C0.84375 8.73633 0.955078 7.81641 1.17773 7.125C1.40039 6.43359 1.75488 5.91211 2.24121 5.56055C2.72754 5.20898 3.36621 4.97461 4.15723 4.85742C4.94824 4.74023 5.90918 4.68164 7.04004 4.68164C8.39355 4.68164 9.50684 4.76074 10.3799 4.91895C11.2588 5.07129 11.9092 5.3877 12.3311 5.86816C12.7529 6.34863 12.9639 7.08105 12.9639 8.06543H11.3467C11.3467 7.49707 11.2295 7.07227 10.9951 6.79102C10.7607 6.50977 10.333 6.32227 9.71191 6.22852C9.09082 6.13477 8.2002 6.08789 7.04004 6.08789C5.99707 6.08789 5.1709 6.13184 4.56152 6.21973C3.95215 6.30762 3.50391 6.48047 3.2168 6.73828C2.92969 6.99023 2.74219 7.36816 2.6543 7.87207C2.57227 8.37598 2.53125 9.04688 2.53125 9.88477C2.53125 10.752 2.57227 11.4463 2.6543 11.9678C2.74219 12.4893 2.92969 12.8818 3.2168 13.1455C3.50391 13.4033 3.95215 13.5762 4.56152 13.6641C5.1709 13.7461 5.99707 13.7871 7.04004 13.7871C7.9248 13.7871 8.64844 13.7637 9.21094 13.7168C9.77344 13.6641 10.21 13.5645 10.5205 13.418C10.8311 13.2656 11.0449 13.0488 11.1621 12.7676C11.2852 12.4805 11.3467 12.0996 11.3467 11.625H12.9639C12.9639 12.4102 12.8467 13.04 12.6123 13.5146C12.3779 13.9893 12.0205 14.3467 11.54 14.5869C11.0596 14.8271 10.4443 14.9883 9.69434 15.0703C8.9502 15.1523 8.06543 15.1934 7.04004 15.1934ZM14.9766 15V1.5H16.6641V6.21973C16.916 5.87988 17.2266 5.5957 17.5957 5.36719C17.9707 5.13867 18.4688 4.96875 19.0898 4.85742C19.7168 4.74023 20.5371 4.68164 21.5508 4.68164C22.875 4.68164 23.918 4.81055 24.6797 5.06836C25.4473 5.32617 25.9922 5.78613 26.3145 6.44824C26.6367 7.11035 26.7979 8.04785 26.7979 9.26074V15H25.1016V9.26074C25.1016 8.56934 25.043 8.0127 24.9258 7.59082C24.8086 7.16895 24.6064 6.84961 24.3193 6.63281C24.0381 6.41602 23.6484 6.27246 23.1504 6.20215C22.6523 6.12598 22.0195 6.08789 21.252 6.08789C20.0801 6.08789 19.1602 6.18457 18.4922 6.37793C17.8242 6.57129 17.3525 6.87598 17.0771 7.29199C16.8018 7.70215 16.6641 8.23828 16.6641 8.90039V15H14.9766ZM34.3828 15.1934C33.1699 15.1934 32.168 15.1289 31.377 15C30.5918 14.877 30.0059 14.6016 29.6191 14.1738C29.2383 13.7461 29.0479 13.0811 29.0479 12.1787C29.0479 11.2588 29.2266 10.585 29.584 10.1572C29.9473 9.72363 30.5186 9.44238 31.2979 9.31348C32.083 9.18457 33.1113 9.12012 34.3828 9.12012C35.4141 9.12012 36.2783 9.14355 36.9756 9.19043C37.6729 9.2373 38.2969 9.31934 38.8477 9.43652C38.8359 8.65723 38.7832 8.04492 38.6895 7.59961C38.5957 7.14844 38.4199 6.81445 38.1621 6.59766C37.9043 6.38086 37.5264 6.24316 37.0283 6.18457C36.5361 6.12012 35.8799 6.08789 35.0596 6.08789C34.1221 6.08789 33.3867 6.1084 32.8535 6.14941C32.3262 6.19043 31.9424 6.26367 31.7021 6.36914C31.4619 6.47461 31.3096 6.62695 31.2451 6.82617C31.1865 7.02539 31.1572 7.2832 31.1572 7.59961H29.4697C29.4697 6.9668 29.5547 6.45703 29.7246 6.07031C29.9004 5.68359 30.1963 5.39062 30.6123 5.19141C31.0283 4.99219 31.5967 4.85742 32.3174 4.78711C33.0439 4.7168 33.958 4.68164 35.0596 4.68164C36.2432 4.68164 37.1953 4.75781 37.916 4.91016C38.6426 5.0625 39.1934 5.33789 39.5684 5.73633C39.9492 6.12891 40.2041 6.67969 40.333 7.38867C40.4678 8.09766 40.5352 9.01172 40.5352 10.1309V15H38.8477V14.3057C38.6484 14.5166 38.373 14.6865 38.0215 14.8154C37.6699 14.9443 37.2012 15.0381 36.6152 15.0967C36.0352 15.1611 35.291 15.1934 34.3828 15.1934ZM34.3828 13.8223C35.3848 13.8223 36.1846 13.8105 36.7822 13.7871C37.3799 13.7637 37.8252 13.6992 38.1182 13.5938C38.417 13.4883 38.6133 13.3184 38.707 13.084C38.8008 12.8496 38.8477 12.5215 38.8477 12.0996V10.5439L34.3828 10.4912C33.5918 10.4795 32.9531 10.4912 32.4668 10.5264C31.9863 10.5557 31.6201 10.626 31.3682 10.7373C31.1162 10.8428 30.9463 11.0127 30.8584 11.2471C30.7764 11.4756 30.7354 11.7861 30.7354 12.1787C30.7354 12.5596 30.7764 12.8613 30.8584 13.084C30.9463 13.3066 31.1162 13.4707 31.3682 13.5762C31.6201 13.6816 31.9863 13.749 32.4668 13.7783C32.9531 13.8076 33.5918 13.8223 34.3828 13.8223ZM42.7852 15V4.875H44.4727V6.13184C44.7246 5.79199 45.0264 5.50781 45.3779 5.2793C45.7295 5.05078 46.1777 4.88086 46.7227 4.76953C47.2734 4.65234 47.9766 4.59375 48.832 4.59375C49.8926 4.59375 50.7568 4.7373 51.4248 5.02441C52.0928 5.31152 52.585 5.80664 52.9014 6.50977C53.1885 6.06445 53.5342 5.70117 53.9385 5.41992C54.3428 5.13281 54.8496 4.9248 55.459 4.7959C56.0742 4.66113 56.8301 4.59375 57.7266 4.59375C58.793 4.59375 59.6602 4.74023 60.3281 5.0332C60.9961 5.32031 61.4854 5.8125 61.7959 6.50977C62.1123 7.20703 62.2705 8.16211 62.2705 9.375V15H60.583V9.375C60.583 8.44922 60.4863 7.74609 60.293 7.26562C60.0996 6.7793 59.7773 6.44824 59.3262 6.27246C58.8809 6.09082 58.2773 6 57.5156 6C56.0215 6 54.9551 6.21973 54.3164 6.65918C53.6836 7.09863 53.3672 7.81641 53.3672 8.8125V8.80371C53.373 8.98535 53.376 9.17578 53.376 9.375V15H51.6885V9.375C51.6885 8.44922 51.5918 7.74609 51.3984 7.26562C51.2051 6.7793 50.8828 6.44824 50.4316 6.27246C49.9863 6.09082 49.3828 6 48.6211 6C47.127 6 46.0605 6.21973 45.4219 6.65918C44.7891 7.09863 44.4727 7.81641 44.4727 8.8125V15H42.7852ZM64.4941 15V5.4375H66.1816V15H64.4941ZM64.4941 3.1875V1.5H66.1816V3.1875H64.4941ZM68.6074 15V4.875H70.2949V6.27246C70.4824 5.97363 70.6699 5.72461 70.8574 5.52539C71.0508 5.32617 71.2998 5.16797 71.6045 5.05078C71.915 4.93359 72.334 4.85156 72.8613 4.80469C73.3887 4.75195 74.083 4.72559 74.9443 4.72559V6.14062C73.7842 6.14062 72.8848 6.18164 72.2461 6.26367C71.6133 6.3457 71.1592 6.48633 70.8838 6.68555C70.6084 6.87891 70.4414 7.14844 70.3828 7.49414C70.3242 7.83984 70.2949 8.2793 70.2949 8.8125V15H68.6074ZM82.3008 15.1934C80.9766 15.1934 79.9336 15.0498 79.1719 14.7627C78.4102 14.4697 77.8682 13.9834 77.5459 13.3037C77.2236 12.6182 77.0625 11.6836 77.0625 10.5V4.875H78.7588V10.5C78.7588 11.168 78.8115 11.7188 78.917 12.1523C79.0283 12.5801 79.2217 12.9141 79.4971 13.1543C79.7725 13.3887 80.1592 13.5527 80.6572 13.6465C81.1611 13.7402 81.8086 13.7871 82.5996 13.7871C83.7715 13.7871 84.6914 13.6904 85.3594 13.4971C86.0273 13.3037 86.499 13.002 86.7744 12.5918C87.0557 12.1758 87.1963 11.6367 87.1963 10.9746V4.875H88.8838V15H87.1963V13.6553C86.9502 13.9951 86.6396 14.2793 86.2646 14.5078C85.8896 14.7363 85.3887 14.9062 84.7617 15.0176C84.1348 15.1348 83.3145 15.1934 82.3008 15.1934ZM91.1777 15V13.3125H92.8652V15H91.1777ZM95.291 15V4.875H96.9785V6.27246C97.166 5.97363 97.3535 5.72461 97.541 5.52539C97.7344 5.32617 97.9834 5.16797 98.2881 5.05078C98.5986 4.93359 99.0176 4.85156 99.5449 4.80469C100.072 4.75195 100.767 4.72559 101.628 4.72559V6.14062C100.468 6.14062 99.5684 6.18164 98.9297 6.26367C98.2969 6.3457 97.8428 6.48633 97.5674 6.68555C97.292 6.87891 97.125 7.14844 97.0664 7.49414C97.0078 7.83984 96.9785 8.2793 96.9785 8.8125V15H95.291ZM105.469 15V6.1582H103.781V4.875H105.469V4.43555C105.469 3.47461 105.624 2.73633 105.935 2.2207C106.251 1.70508 106.74 1.35059 107.402 1.15723C108.07 0.963867 108.929 0.867188 109.978 0.867188H111.938V2.23828H109.969C109.131 2.23828 108.513 2.29102 108.114 2.39648C107.716 2.50195 107.455 2.71289 107.332 3.0293C107.215 3.33984 107.156 3.80859 107.156 4.43555V4.875H111.938V6.1582H107.156V15H105.469Z" fill="white"/>
</svg>
