<?xml version="1.0" encoding="UTF-8"?><svg id="Layer_1" xmlns="http://www.w3.org/2000/svg" viewBox="0 0 1080 1080"><path d="M181.93,481.96c3.65-1.46,21.66-23.6,19.47-37.23-.97-6.33-7.06-9.49-18.01-9.49-29.2,0-62.54,22.63-91.5,62.05-26.28,35.53-43.32,77.14-43.32,106.1,0,10.95,2.43,19.47,7.06,25.31,5.11,6.33,12.9,9.49,23.12,9.49,50.62,0,101.96-68.38,102.45-69.11.97-1.22,2.68-1.46,3.89-.49s1.46,2.68.49,3.89c-.24.24-13.38,18.01-32.85,35.53-26.52,23.85-51.35,35.77-73.73,35.77-11.92,0-21.17-3.89-27.25-11.44-5.6-6.81-8.27-16.55-8.27-28.71,0-30.17,17.28-73,44.05-109.26,29.93-40.64,64.73-64,95.63-64,8.03,0,14.11,1.7,18.01,4.87,3.65,2.92,5.6,7.06,5.6,12.41,0,15.33-18.01,40.15-24.58,40.15-1.46,0-2.68-1.22-2.68-2.68s.97-2.68,2.43-2.92v-.24Z" fill="#fff"/><path d="M245.68,564.7c1.22.73,1.46,2.43.73,3.65-.24.24-4.62,6.81-9.98,13.38-10.22,12.65-15.09,14.11-17.76,14.11-.97,0-1.95-.49-2.43-1.22-1.46-1.95-.73-4.38,1.46-11.44,1.22-3.65,3.65-11.19,3.16-13.38-9.25.49-30.91,20.93-30.91,25.79,0,1.46-1.22,2.68-2.68,2.68s-2.68-1.22-2.68-2.68c0-9.73,35.53-73,42.58-85.66.73-1.22,2.43-1.7,3.65-.97,1.22.73,1.7,2.43.97,3.65-10.95,19.47-26.28,47.7-35.04,65.95.73-.73,1.46-1.22,1.95-1.46,4.14-3.65,14.84-12.41,22.39-12.41,1.7,0,3.16.73,4.14,1.95,2.43,3.16.73,9.25-2.19,18.25-.49,1.46-.97,3.41-1.46,4.87,5.11-3.41,14.11-14.11,20.68-24.09.73-1.22,2.43-1.46,3.65-.73l-.24-.24Z" fill="#fff"/><path d="M310.65,567.62c.97,1.22.73,2.92-.49,3.89-2.68,1.95-26.53,19.47-37.48,19.47-2.92,0-5.11-.97-6.33-2.68-1.7-2.19-1.22-4.87-.49-7.3-7.3,5.35-20.93,14.6-27.25,14.6-2.68,0-4.87-.73-6.33-2.19-.97-.97-2.19-2.68-2.19-5.6,0-11.68,18.49-32.37,36.75-32.37,3.89,0,16.06,0,16.06,12.17,0,1.46-1.22,2.68-2.68,2.68s-2.68-1.22-2.68-2.68c0-3.41-.73-6.81-10.71-6.81-15.33,0-31.39,18.74-31.39,27.01,0,.97.24,1.7.73,2.19.49.49,1.46.73,2.68.73,4.62,0,19.47-9.98,28.47-17.03.49-.24.97-.49,1.46-.49,1.7,0,2.68.97,3.16,1.46,1.22,1.7.49,3.89-.24,6.33-.24.97-1.22,3.89-.73,4.38,0,0,.49.24,1.95.24,7.79,0,27.25-13.38,34.07-18.49,1.22-.97,2.92-.73,3.89.49h-.24Z" fill="#fff"/><path d="M375.38,566.16c1.22.97,1.22,2.68.24,3.65-5.84,6.57-19.95,21.66-26.52,20.93-1.22,0-2.19-.49-2.92-1.46-1.95-2.92,0-7.79,3.41-16.3.97-2.43,2.19-5.6,2.92-7.79-6.57,2.19-17.52,12.65-18.01,15.33,0,1.46-1.22,2.43-2.68,2.43-1.22,0-2.19-.49-2.68-1.46-1.46-2.43.24-6.33,5.6-17.52,2.43-4.87,6.08-12.41,6.81-15.82-3.89,1.22-11.19,6.81-21.66,19.71-8.03,9.73-13.87,18.74-15.57,22.39-.24,1.46-.49,2.43-.49,2.92,0,1.46-1.22,2.68-2.68,2.68s-2.68-1.22-2.68-2.68v-1.46c0-.49.24-1.46.73-2.68.97-4.14,2.92-10.71,4.87-16.55,6.08-17.52,9.98-19.96,12.9-19.96,1.46,0,2.68,1.22,2.68,2.68s-.97,2.68-2.43,2.68c-.97.49-3.65,4.14-7.3,14.6,9.98-13.63,24.33-29.2,33.09-29.2,1.46,0,2.68.73,3.41,1.95,1.95,3.16-.49,9-6.81,21.66-.24.49-.49.97-.73,1.46,2.92-2.43,10.22-8.27,15.57-8.27,1.22,0,2.19.49,2.92,1.46,1.46,2.43,0,6.33-3.16,14.11-1.22,3.16-3.16,8.03-3.65,10.46,3.41-1.22,12.41-9.49,20.68-18.98.97-1.22,2.68-1.22,3.65-.24l.49-.73Z" fill="#fff"/><path d="M407.5,564.46c.97.97.97,2.68,0,3.65-2.43,2.43-24.33,24.58-36.26,24.58-2.19,0-3.89-.97-4.87-2.68-1.46-2.43-1.95-7.3,5.6-22.39,3.89-8.03,8.27-15.09,8.52-15.33.73-1.22,2.43-1.7,3.65-.97,1.22.73,1.7,2.43.97,3.65-9,14.6-15.57,29.69-14.11,32.37h.24c7.3,0,23.85-14.11,32.61-23.12.97-.97,2.68-.97,3.65,0v.24ZM383.41,545.72c0-1.95,1.7-3.65,3.65-3.65s3.65,1.7,3.65,3.65-1.7,3.65-3.65,3.65-3.65-1.7-3.65-3.65Z" fill="#fff"/><path d="M451.06,567.13c.73,1.22.49,2.92-.73,3.65-.24.24-7.54,5.35-14.84,5.35-1.95,0-3.65-.73-4.87-1.95-2.19-2.43-1.95-6.33-1.7-9.49v-2.43c-7.06,3.16-32.37,30.17-33.1,35.77,0,.97-.49,1.7-1.22,2.19-.24,1.22-1.22,2.19-2.43,2.19-.97,0-1.95-.49-2.43-1.46-1.46-2.19-.49-5.11,12.41-30.91,3.16-6.33,6.57-13.38,7.3-15.33,0-1.46,1.22-2.68,2.68-2.68.97,0,1.95.49,2.43,1.22q.97,1.7-7.79,18.98c-.97,1.7-1.95,3.65-2.92,5.6,1.22-1.22,2.19-2.43,2.92-3.41,6.33-6.57,17.52-17.76,22.63-17.76,1.22,0,2.19.49,2.92,1.22,1.46,1.7,1.22,4.38.97,7.06,0,1.7-.24,4.62.49,5.35.24.24.73.24.97.24,4.62,0,9.98-3.16,11.68-4.38,1.22-.73,2.92-.49,3.65.73l.97.24Z" fill="#fff"/><path d="M506.29,563.24c1.22.97,1.46,2.68.49,3.89-1.95,2.43-18.5,22.87-29.93,22.87-1.7,0-3.16-.73-3.89-2.19-.73-.97-1.46-3.65.24-9.98-7.3,7.06-17.03,14.84-24.82,14.84-2.43,0-4.38-.97-5.35-2.92-4.38-8.03,9.73-32.12,14.11-39.42.73-1.22,2.43-1.7,3.65-.97s1.7,2.43.97,3.65c-8.27,13.63-15.82,30.42-13.87,33.83,0,0,0,.24.73.24,9.25,0,25.31-17.03,30.66-23.6.73-.97,2.19-1.22,3.41-.49,1.22.73,1.7,2.19,1.22,3.41-3.89,7.54-6.57,15.82-6.33,18.25,6.81-.49,18.98-12.9,25.06-20.68.97-1.22,2.68-1.46,3.89-.49l-.24-.24Z" fill="#fff"/><path d="M766.92,446.19c1.46.24,2.43,1.46,2.19,2.92s-1.46,2.43-2.92,2.43c-37.47-3.41-70.57-3.41-97.58-1.7-9,16.06-30.42,55.24-48.91,94.18,10.71-1.7,24.09-3.16,39.67-3.16,1.46,0,2.68,1.22,2.68,2.68s-1.22,2.68-2.68,2.68c-16.79,0-31.15,1.7-42.59,3.65-16.79,36.02-30.42,71.06-28.71,86.88.24,1.46-.73,2.68-2.19,2.92-1.22,0-2.43-.97-2.68-2.43-1.46-13.63,7.3-39.91,19.71-68.87v-.73c.49-1.7,0-2.68-.49-3.41-2.92-4.14-14.11-5.35-17.03-5.35-1.7,0-2.68-1.46-2.68-2.68,0-1.95,1.22-2.92,7.06-5.11,2.92-.97,8.03-2.68,15.33-4.38,2.43-.49,5.11-.97,8.27-1.46,8.27-17.52,17.03-35.04,25.31-50.62v-.73c2.68-5.84,2.68-10.95,0-15.33-5.6-8.76-22.14-13.87-44.05-13.87-2.92,0-5.11-.24-6.08-1.95-.49-.97-.49-2.19.24-3.16,2.92-4.62,28.23-9.73,51.83-12.41,7.06-.73,15.33-1.46,24.82-2.19,1.46-2.68,2.43-4.38,2.68-4.87.73-1.22,2.43-1.7,3.65-.97s1.7,2.43.97,3.65c0,0-.49.73-1.22,1.95,25.07-1.46,57.19-1.46,94.91,1.95l.49-.49ZM606.55,560.32c1.46-3.16,2.92-6.33,4.38-9.49-6.08,1.22-11.19,2.68-15.09,3.89,4.14.97,8.52,2.68,10.95,5.6h-.24ZM645.73,481.48c6.81-12.9,12.9-23.85,17.03-31.39-29.69,2.19-51.35,6.08-62.05,9.25,21.17.97,36.5,6.81,42.59,16.3,1.22,1.7,1.95,3.65,2.43,5.6v.24Z" fill="#fff"/><path d="M717.76,565.92c.97.97.97,2.68,0,3.65-2.68,2.92-25.55,27.98-38.69,27.98-4.14,0-7.54-1.22-9.73-3.41s-3.41-5.11-3.41-8.76c0-13.14,15.57-34.8,33.09-34.8,2.68,0,4.62.49,6.08,1.46,1.7.97,2.68,2.68,2.68,4.62,0,7.79-16.55,18.98-31.88,18.98-.73,0-1.46-.24-1.95-.73-1.95,3.65-3.16,7.3-3.16,10.46,0,2.19.49,3.89,1.7,5.11s3.16,1.95,5.84,1.95c2.43,0,8.52-1.7,21.17-12.9,7.54-6.57,13.63-13.14,13.63-13.14.97-.97,2.68-.97,3.65,0l.97-.49ZM699.26,555.45c-8.52,0-16.79,6.81-22.14,14.6,10.71-.24,21.17-6.57,24.58-11.19,1.22-1.46,1.22-2.19,1.22-2.43,0,0-.73-.73-3.65-.73v-.24Z" fill="#fff"/><path d="M761.31,567.13c.73,1.22.49,2.92-.73,3.65-.24.24-7.54,5.35-14.84,5.35-1.95,0-3.65-.73-4.87-1.95-2.19-2.43-1.95-6.33-1.7-9.49v-2.43c-7.06,3.16-32.37,30.17-33.1,35.77,0,.97-.49,1.7-1.22,2.19-.24,1.22-1.22,2.19-2.43,2.19-.97,0-1.95-.49-2.43-1.46-1.46-2.19-.49-5.11,12.41-30.91,3.16-6.33,6.57-13.38,7.3-15.33,0-1.46,1.22-2.68,2.68-2.68.97,0,1.95.49,2.43,1.22q.97,1.7-7.79,18.98c-.97,1.7-1.95,3.65-2.92,5.6,1.22-1.22,2.19-2.43,2.92-3.41,6.33-6.57,17.52-17.76,22.63-17.76,1.22,0,2.19.49,2.92,1.22,1.46,1.7,1.22,4.38.97,7.06,0,1.7-.24,4.62.49,5.35.24.24.73.24.97.24,4.62,0,9.98-3.16,11.68-4.38,1.22-.73,2.92-.49,3.65.73l.97.24Z" fill="#fff"/><path d="M812.17,565.67c1.22.97,1.46,2.68.49,3.89-7.54,9.49-20.93,25.55-27.01,25.55-1.7,0-3.16-.73-4.14-1.95-2.43-3.41-.24-9.49,3.65-19.22,1.46-3.89,3.65-9.49,3.89-11.92-10.46,1.46-35.04,28.71-35.53,33.83,0,1.46-1.22,2.68-2.68,2.68-1.22,0-2.19-.49-2.68-1.46-.24-.49-.49-1.22-.49-1.95,0-4.62,6.08-17.28,8.76-22.39,9.25-18.01,11.44-18.01,12.9-18.01s2.68,1.22,2.68,2.68c0,.97-.73,1.95-1.7,2.43-1.95,1.95-7.06,11.19-11.19,19.95,2.68-3.16,5.11-5.6,5.35-5.84,6.33-6.33,18.01-16.79,26.04-16.79,1.46,0,2.68.73,3.41,1.95,1.95,2.92,0,8.27-3.65,17.28-1.7,4.14-4.62,11.68-4.38,14.11,3.41-1.22,14.11-12.9,22.39-23.61.97-1.22,2.68-1.46,3.89-.49v-.73Z" fill="#fff"/><path d="M876.17,567.62c.97,1.22.73,2.92-.49,3.89-2.68,1.95-26.53,19.47-37.48,19.47-2.92,0-5.11-.97-6.33-2.68-1.7-2.19-1.22-4.87-.49-7.3-7.3,5.35-20.93,14.6-27.25,14.6-2.68,0-4.87-.73-6.33-2.19-.97-.97-2.19-2.68-2.19-5.6,0-11.68,18.49-32.37,36.75-32.37,3.89,0,16.06,0,16.06,12.17,0,1.46-1.22,2.68-2.68,2.68s-2.68-1.22-2.68-2.68c0-3.41-.73-6.81-10.71-6.81-15.33,0-31.39,18.74-31.39,27.01,0,.97.24,1.7.73,2.19.49.49,1.46.73,2.68.73,4.62,0,19.47-9.98,28.47-17.03.49-.24.97-.49,1.46-.49,1.7,0,2.68.97,3.16,1.46,1.22,1.7.49,3.89-.24,6.33-.24.97-1.22,3.89-.73,4.38,0,0,.49.24,1.95.24,7.79,0,27.25-13.38,34.07-18.49,1.22-.97,2.92-.73,3.89.49h-.24Z" fill="#fff"/><path d="M925.33,565.67c1.22.97,1.46,2.68.49,3.89-7.54,9.49-20.93,25.55-27.01,25.55-1.7,0-3.16-.73-4.14-1.95-2.43-3.41-.24-9.49,3.65-19.22,1.46-3.89,3.65-9.49,3.89-11.92-10.46,1.46-35.04,28.71-35.53,33.83,0,1.46-1.22,2.68-2.68,2.68-1.22,0-2.19-.49-2.68-1.46-.24-.49-.49-1.22-.49-1.95,0-4.62,6.08-17.28,8.76-22.39,9.25-18.01,11.44-18.01,12.9-18.01s2.68,1.22,2.68,2.68c0,.97-.73,1.95-1.7,2.43-1.95,1.95-7.06,11.19-11.19,19.95,2.68-3.16,5.11-5.6,5.35-5.84,6.33-6.33,18.01-16.79,26.04-16.79,1.46,0,2.68.73,3.41,1.95,1.95,2.92,0,8.27-3.65,17.28-1.7,4.14-4.62,11.68-4.38,14.11,3.41-1.22,14.11-12.9,22.39-23.61.97-1.22,2.68-1.46,3.89-.49v-.73Z" fill="#fff"/><path d="M1035.81,471.5c.24.49.73,1.22.73,2.19,0,6.81-28.23,44.29-47.45,67.65-4.14,5.11-8.03,9.73-11.68,14.11-13.14,25.79-27.74,61.32-27.74,91.5,0,1.46-1.22,2.68-2.68,2.68s-2.68-1.22-2.68-2.68c0-21.66,7.06-45.75,16.06-67.41h-.73c-1.22,0-2.19-.97-2.43-2.19-18.74,18.98-28.23,23.85-33.09,23.85-3.65,0-6.57-.97-8.52-3.16-1.95-1.95-2.92-4.62-2.92-8.03,0-14.36,19.22-39.91,37.96-39.91,5.6,0,9.49,1.46,11.92,4.38,1.46,1.95,2.19,4.14,2.43,6.57,2.68-2.92,5.35-6.08,8.27-9.25,3.65-7.3,7.3-13.87,10.46-19.22,9.49-16.3,19.95-31.88,29.44-43.8,14.6-18.49,18.98-18.49,20.44-18.49.97,0,1.95.49,2.43,1.22h-.24ZM958.67,567.38c.73-3.65.97-7.54-.73-9.73-1.22-1.7-3.89-2.43-7.79-2.43-15.33,0-32.61,22.63-32.61,34.8,0,1.95.49,3.41,1.46,4.38.97.97,2.68,1.46,4.87,1.46,4.62,0,15.82-7.79,35.04-28.23l-.24-.24ZM964.51,569.08c-.24.24-.49.49-.73.73-.24.73-.49,1.46-.73,2.19.49-.97.97-1.95,1.46-2.92ZM990.79,530.39c18.25-22.63,31.88-42.1,37.48-51.59-7.54,7.3-21.9,25.06-37.72,51.59h.24Z" fill="#fff"/><path d="M1025.83,566.89c.97.97.97,2.68,0,3.65-.49.49-12.65,13.14-25.31,13.14-7.06,8.52-16.06,15.33-24.33,15.33-4.87,0-7.79-3.16-7.79-8.27,0-6.33,4.14-14.11,5.84-17.28,2.68-4.87,6.57-10.71,10.22-10.71,1.46,0,2.43.49,2.92.97.49-3.16,1.7-6.08,3.41-8.52,2.92-4.14,7.3-6.33,12.17-6.33,2.92,0,5.11.97,6.81,2.68,1.46,1.7,2.19,3.89,2.19,6.57,0,5.35-2.92,12.65-7.3,19.47,9-2.19,17.28-10.95,17.28-10.95.97-.97,2.68-.97,3.65,0l.24.24ZM994.19,582.46c-4.14-1.95-6.81-6.08-7.54-11.44-.73.73-1.95.97-2.92.49-.49-.24-.97-.73-1.22-1.22-3.89,4.62-10.22,16.79-9,22.14.24.97.73,1.46,2.43,1.46,5.84,0,12.65-4.87,18.25-11.44ZM1006.6,558.37c0-.97-.24-2.19-.97-2.92-.49-.73-1.46-.97-2.92-.97-6.81,0-10.95,7.06-10.95,13.87,0,4.14,1.7,8.52,6.08,9.73,5.11-6.81,8.76-14.6,8.76-19.71Z" fill="#fff"/></svg>